<svg class="svg-icon" style="width: 1em; height: 1em;vertical-align: middle;fill: currentColor;overflow: hidden;" viewBox="0 0 1024 1024" version="1.1" xmlns="http://www.w3.org/2000/svg"><path d="M554.793731 891.21945c-7.998828 0-15.997657-1.599766-23.596543-5.199238l-153.977445-73.189279 5.59918-11.998242 153.977445 73.189278c12.798125 5.999121 27.595958 5.199238 39.5942-2.399648s19.197188-20.397012 19.197188-34.794903c0-15.197774-8.39877-29.195723-21.996778-36.394669l-178.773813-93.18635H232.840892v-13.198066h165.575746l181.573403 94.386174c17.997364 9.198653 29.195723 27.995899 29.195723 47.992969 0 18.797246-9.598594 35.994727-25.196309 45.993263-8.798711 5.999121-19.197188 8.798711-29.195724 8.798711z" fill="#4A555F" /><path d="M588.38881 1024c-31.595372 0-63.590685-6.399063-93.186349-19.197188l-244.364205-105.184592h-17.997364v-13.198067h20.796954l1.199824 0.399942 245.564029 105.984475c59.591271 25.596251 127.18137 23.996485 185.172875-3.999415l294.756823-143.179026c20.796954-9.998535 29.595665-34.394962 19.997071-55.191915-9.598594-21.196895-33.595079-30.395548-54.791974-21.596837l-252.762974 106.384417c-50.392618 21.196895-118.382659 39.994141-195.171411-5.59918l6.799004-11.19836c56.791681 33.595079 111.583655 35.194845 183.57311 4.799297l252.762974-106.384416c27.995899-11.598301 59.591271 0.799883 71.989454 28.39584 12.398184 27.595958 0.799883 59.191329-26.396133 72.389396l-294.756823 143.179027c-32.795196 15.197774-67.990041 23.196602-103.184885 23.196602z" fill="#4A555F" /><path d="M985.130694 796.833276c-4.399356-9.598594-13.598008-15.197774-23.596544-15.197773-3.599473 0-6.799004 0.799883-10.398477 1.999707l-252.762974 106.384416c-42.793731 17.997364-78.788459 24.796368-108.384123 24.796368-46.793146 0-79.1884-16.797539-102.385002-31.995313l-117.182835-55.591857 19.597129-41.193966 153.977445 73.189279c3.599473 1.599766 7.198945 2.399648 10.798418 2.399649 4.399356 0 9.198653-1.199824 13.198067-3.999415 7.598887-4.799297 11.598301-12.398184 11.598301-21.196895 0-9.198653-5.199238-17.597422-13.598008-21.996777l-175.17434-91.186643H256.037495v147.978324h-1.199825l1.199825 0.399941 249.963384 105.984475c25.996192 11.19836 53.992091 16.797539 81.588048 16.797539 30.795489 0 61.590978-6.799004 89.986819-20.796953l294.756822-143.179027c13.198067-5.59918 18.797246-20.796954 12.798126-33.595079z" fill="#E0E0E0" /><path d="M239.239955 982.406093H6.873993v-369.545867h232.365962v369.545867zM20.07206 969.208026h205.969828v-343.149734H20.07206v343.149734z" fill="#4A555F" /><path d="M35.269834 641.256066h175.574281v312.754186H35.269834z" fill="#FFD552" /><path d="M90.461749 742.041303c-21.596836 0-39.194259-17.597422-39.194259-39.194259s17.597422-39.194259 39.194259-39.194259 39.194259 17.597422 39.194258 39.194259-17.597422 39.194259-39.194258 39.194259z m0-65.190451c-14.397891 0-25.996192 11.598301-25.996192 25.996192s11.598301 25.996192 25.996192 25.996192 25.996192-11.598301 25.996192-25.996192-11.598301-25.996192-25.996192-25.996192z" fill="#4A555F" /><path d="M90.461749 702.847044m-9.998536 0a9.998535 9.998535 0 1 0 19.997071 0 9.998535 9.998535 0 1 0-19.997071 0Z" fill="#FFD552" /><path d="M554.793731 891.21945c-7.998828 0-15.997657-1.599766-23.196602-5.199238l-35.194844-16.79754-0.399942-0.399941 4.799297-4.799297 0.799883-1.199824 1.999707-4.399356 33.595079 15.997657c5.59918 2.79959 11.598301 3.999414 17.597422 3.999414 22.796661 0 41.193966-18.397305 41.193966-41.193966 0-15.197774-8.39877-29.195723-21.996778-36.394668l-3.999414-1.999708 5.999121-11.598301 3.999415 1.999707c17.997364 9.198653 29.195723 27.595958 29.195723 47.99297 0 29.595665-24.396426 53.992091-54.392033 53.992091z" fill="#4A555F" /><path d="M595.587756 897.618513c-30.395548 0-63.190744-7.198945-97.985647-27.995899l-1.599766-1.199824 5.59918-5.59918-0.799883 0.799883 1.999707-2.79959 1.599766-2.399649h0.399942c56.791681 33.195137 111.583655 34.794903 183.173168 4.399356l73.58922-30.795489 5.199238 11.998242-73.58922 30.795489c-28.39584 11.998242-61.191036 22.796661-97.585705 22.796661z" fill="#4A555F" /><path d="M554.793731 891.21945c-7.998828 0-15.997657-1.599766-23.196602-5.199238l-67.590099-32.395255 5.59918-11.998242 67.590099 32.395254c5.59918 2.79959 11.598301 3.999414 17.597422 3.999415 22.796661 0 41.193966-18.397305 41.193966-41.193966 0-15.197774-8.39877-29.195723-21.996778-36.394669l-3.999414-1.999707 5.999121-11.598301 3.999415 1.999707c17.997364 9.198653 29.195723 27.595958 29.195723 47.99297 0 29.995606-24.396426 54.392032-54.392033 54.392032z" fill="#4A555F" /><path d="M595.987697 898.018454c-29.995606 0-62.790802-7.598887-98.385588-28.39584l-1.599766-1.199824 4.799297-4.799297 1.999707-2.79959 1.599766-2.79959h0.399942c71.989455 41.193966 130.380901 26.796075 183.173168 4.399355l73.58922-30.795489 5.199238 11.998243-73.58922 30.795489c-30.795489 13.198067-62.390861 23.596543-97.185764 23.596543z" fill="#4A555F" /><path d="M593.188107 821.629644c-3.599473-9.198653-10.398477-16.797539-19.197188-21.196895l-3.999414-1.999707-174.774398-91.186643H319.628179v-13.198066h78.788459l181.573403 94.386174c11.598301 5.999121 20.397012 15.997657 25.196309 27.995899l-11.998243 5.199238z" fill="#4A555F" /><path d="M593.188107 821.629644c-3.599473-9.198653-10.398477-16.797539-19.197188-21.196895l-3.999414-1.999707 5.999121-11.598301 3.999415 1.999707c11.598301 5.999121 20.397012 15.997657 25.196309 27.995899l-11.998243 4.799297z" fill="#4A555F" /><path d="M593.188107 821.629644c-3.599473-9.198653-10.398477-16.797539-19.197188-21.196895l-3.999414-1.999707 5.999121-11.598301 3.999415 1.999707c11.598301 5.999121 20.397012 15.997657 25.196309 27.995899l-11.998243 4.799297z" fill="#4A555F" /><path d="M533.596836 886.820095c-11.998242-4.399356-24.396426-9.998535-36.394668-17.197481l5.999121-11.598301 35.194844 16.797539-4.799297 11.998243z" fill="#4A555F" /><path d="M533.596836 886.820095c-11.998242-4.399356-24.396426-9.998535-36.394668-17.197481l5.999121-11.598301 35.194844 16.797539-4.799297 11.998243z" fill="#4A555F" /><path d="M542.795489 889.619685c-3.199531-0.799883-6.799004-1.999707-9.598594-3.199532l4.799297-12.398184c2.79959 0.799883 5.59918 1.999707 8.39877 2.79959l-3.599473 12.798126z" fill="#4A555F" /><path d="M542.795489 889.619685c-3.199531-0.799883-6.799004-1.999707-9.598594-3.199532l4.799297-12.398184c2.79959 0.799883 5.59918 1.999707 8.39877 2.79959l-3.599473 12.798126z" fill="#4A555F" /><path d="M554.793731 891.21945c-3.599473 0-7.598887-0.399941-11.198359-1.199824l-1.199824-0.399941c-3.199531-0.799883-6.799004-1.999707-9.598594-3.199532l-1.599766-0.799883-32.395255-15.597715h-1.199824l-1.999707-1.999707 4.799297-4.799297v-6.399062h1.599766l36.394668 17.19748c1.999707 0.799883 4.399356 1.599766 6.799004 2.399649l0.799883 0.399941c2.79959 0.799883 5.59918 0.799883 8.798711 0.799883 22.796661 0 41.193966-18.397305 41.193966-41.193966 0-15.197774-8.39877-29.195723-21.996778-36.394668l-178.773812-93.18635H298.431284v-13.198067h99.985354L579.990041 788.034565c17.997364 9.198653 29.195723 27.595958 29.195723 47.99297 0 30.795489-24.396426 55.191915-54.392033 55.191915z" fill="#4A555F" /><path d="M594.787873 897.618513c-17.597422 0-34.394962-2.399648-51.592443-7.598887l-0.799882-0.399941c-2.79959-0.799883-5.999121-1.999707-8.798712-2.79959-11.598301-3.999414-23.196602-9.598594-34.794903-16.397598h-0.799883l-1.999707-1.999707 4.799297-4.799297v-6.399063h1.999707l1.599766 0.799883c11.19836 6.799004 22.796661 11.998242 33.99502 15.997656 2.399648 0.799883 5.199238 1.599766 7.598887 2.399649l0.799883 0.399941c42.793731 13.198067 86.387346 8.798711 140.779378-14.397891l209.16936-87.987111 5.199238 11.998243-209.169359 87.987111c-36.394669 15.597715-67.990041 23.196602-97.985647 23.196602z" fill="#4A555F" /><path d="M554.793731 891.21945c-7.998828 0-15.997657-1.599766-23.596543-5.199238l-153.977445-73.189279 5.59918-11.998242 153.977445 73.189278c12.798125 5.999121 27.595958 5.199238 39.5942-2.399648s19.197188-20.397012 19.197188-34.794903c0-15.197774-8.39877-29.195723-21.996778-36.394669l-178.773813-93.18635H232.840892v-13.198066h165.575746l181.573403 94.386174c17.997364 9.198653 29.195723 27.995899 29.195723 47.992969 0 18.797246-9.598594 35.994727-25.196309 45.993263-8.798711 5.999121-19.197188 8.798711-29.195724 8.798711z" fill="#4A555F" /><path d="M588.38881 1024c-31.595372 0-63.590685-6.399063-93.186349-19.197188l-244.364205-105.184592h-17.997364v-13.198067h20.796954l1.199824 0.399942 245.564029 105.984475c59.591271 25.596251 127.18137 23.996485 185.172875-3.999415l294.756823-143.179026c20.796954-9.998535 29.595665-34.394962 19.997071-55.191915-9.598594-21.196895-33.595079-30.395548-54.791974-21.596837l-252.762974 106.384417c-50.392618 21.196895-118.382659 39.994141-195.171411-5.59918l6.799004-11.19836c56.791681 33.595079 111.583655 35.194845 183.57311 4.799297l252.762974-106.384416c27.995899-11.598301 59.591271 0.799883 71.989454 28.39584 12.398184 27.595958 0.799883 59.191329-26.396133 72.389396l-294.756823 143.179027c-32.795196 15.197774-67.990041 23.196602-103.184885 23.196602z" fill="#4A555F" /><path d="M239.239955 982.406093H6.873993v-369.545867h232.365962v369.545867zM20.07206 969.208026h205.969828v-343.149734H20.07206v343.149734z" fill="#4A555F" /><path d="M35.269834 641.256066h175.574281v312.754186H35.269834z" fill="#FFD552" /><path d="M90.461749 742.041303c-21.596836 0-39.194259-17.597422-39.194259-39.194259s17.597422-39.194259 39.194259-39.194259 39.194259 17.597422 39.194258 39.194259-17.597422 39.194259-39.194258 39.194259z m0-65.190451c-14.397891 0-25.996192 11.598301-25.996192 25.996192s11.598301 25.996192 25.996192 25.996192 25.996192-11.598301 25.996192-25.996192-11.598301-25.996192-25.996192-25.996192zM554.793731 891.21945c-7.998828 0-15.997657-1.599766-23.196602-5.199238l-35.194844-16.79754-0.399942-0.399941 4.799297-4.799297 0.799883-1.199824 1.999707-4.399356 33.595079 15.997657c5.59918 2.79959 11.598301 3.999414 17.597422 3.999414 22.796661 0 41.193966-18.397305 41.193966-41.193966 0-15.197774-8.39877-29.195723-21.996778-36.394668l-3.999414-1.999708 5.999121-11.598301 3.999415 1.999707c17.997364 9.198653 29.195723 27.595958 29.195723 47.99297 0 29.595665-24.396426 53.992091-54.392033 53.992091z" fill="#4A555F" /><path d="M595.587756 897.618513c-30.395548 0-63.190744-7.198945-97.985647-27.995899l-1.599766-1.199824 5.59918-5.59918-0.799883 0.799883 1.999707-2.79959 1.599766-2.399649h0.399942c56.791681 33.195137 111.583655 34.794903 183.173168 4.399356l73.58922-30.795489 5.199238 11.998242-73.58922 30.795489c-28.39584 11.998242-61.191036 22.796661-97.585705 22.796661z" fill="#4A555F" /><path d="M554.793731 891.21945c-7.998828 0-15.997657-1.599766-23.196602-5.199238l-67.590099-32.395255 5.59918-11.998242 67.590099 32.395254c5.59918 2.79959 11.598301 3.999414 17.597422 3.999415 22.796661 0 41.193966-18.397305 41.193966-41.193966 0-15.197774-8.39877-29.195723-21.996778-36.394669l-3.999414-1.999707 5.999121-11.598301 3.999415 1.999707c17.997364 9.198653 29.195723 27.595958 29.195723 47.99297 0 29.995606-24.396426 54.392032-54.392033 54.392032z" fill="#4A555F" /><path d="M595.987697 898.018454c-29.995606 0-62.790802-7.598887-98.385588-28.39584l-1.599766-1.199824 4.799297-4.799297 1.999707-2.79959 1.599766-2.79959h0.399942c71.989455 41.193966 130.380901 26.796075 183.173168 4.399355l73.58922-30.795489 5.199238 11.998243-73.58922 30.795489c-30.795489 13.198067-62.390861 23.596543-97.185764 23.596543z" fill="#4A555F" /><path d="M593.188107 821.629644c-3.599473-9.198653-10.398477-16.797539-19.197188-21.196895l-3.999414-1.999707-174.774398-91.186643H319.628179v-13.198066h78.788459l181.573403 94.386174c11.598301 5.999121 20.397012 15.997657 25.196309 27.995899l-11.998243 5.199238z" fill="#4A555F" /><path d="M593.188107 821.629644c-3.599473-9.198653-10.398477-16.797539-19.197188-21.196895l-3.999414-1.999707 5.999121-11.598301 3.999415 1.999707c11.598301 5.999121 20.397012 15.997657 25.196309 27.995899l-11.998243 4.799297z" fill="#4A555F" /><path d="M593.188107 821.629644c-3.599473-9.198653-10.398477-16.797539-19.197188-21.196895l-3.999414-1.999707 5.999121-11.598301 3.999415 1.999707c11.598301 5.999121 20.397012 15.997657 25.196309 27.995899l-11.998243 4.799297z" fill="#4A555F" /><path d="M533.596836 886.820095c-11.998242-4.399356-24.396426-9.998535-36.394668-17.197481l5.999121-11.598301 35.194844 16.797539-4.799297 11.998243z" fill="#4A555F" /><path d="M533.596836 886.820095c-11.998242-4.399356-24.396426-9.998535-36.394668-17.197481l5.999121-11.598301 35.194844 16.797539-4.799297 11.998243z" fill="#4A555F" /><path d="M542.795489 889.619685c-3.199531-0.799883-6.799004-1.999707-9.598594-3.199532l4.799297-12.398184c2.79959 0.799883 5.59918 1.999707 8.39877 2.79959l-3.599473 12.798126z" fill="#4A555F" /><path d="M542.795489 889.619685c-3.199531-0.799883-6.799004-1.999707-9.598594-3.199532l4.799297-12.398184c2.79959 0.799883 5.59918 1.999707 8.39877 2.79959l-3.599473 12.798126z" fill="#4A555F" /><path d="M554.793731 891.21945c-3.599473 0-7.598887-0.399941-11.198359-1.199824l-1.199824-0.399941c-3.199531-0.799883-6.799004-1.999707-9.598594-3.199532l-1.599766-0.799883-32.395255-15.597715h-1.199824l-1.999707-1.999707 4.799297-4.799297v-6.399062h1.599766l36.394668 17.19748c1.999707 0.799883 4.399356 1.599766 6.799004 2.399649l0.799883 0.399941c2.79959 0.799883 5.59918 0.799883 8.798711 0.799883 22.796661 0 41.193966-18.397305 41.193966-41.193966 0-15.197774-8.39877-29.195723-21.996778-36.394668l-178.773812-93.18635H298.431284v-13.198067h99.985354L579.990041 788.034565c17.997364 9.198653 29.195723 27.595958 29.195723 47.99297 0 30.795489-24.396426 55.191915-54.392033 55.191915z" fill="#4A555F" /><path d="M594.787873 897.618513c-17.597422 0-34.394962-2.399648-51.592443-7.598887l-0.799882-0.399941c-2.79959-0.799883-5.999121-1.999707-8.798712-2.79959-11.598301-3.999414-23.196602-9.598594-34.794903-16.397598h-0.799883l-1.999707-1.999707 4.799297-4.799297v-6.399063h1.999707l1.599766 0.799883c11.19836 6.799004 22.796661 11.998242 33.99502 15.997656 2.399648 0.799883 5.199238 1.599766 7.598887 2.399649l0.799883 0.399941c42.793731 13.198067 86.387346 8.798711 140.779378-14.397891l209.16936-87.987111 5.199238 11.998243-209.169359 87.987111c-36.394669 15.597715-67.990041 23.196602-97.985647 23.196602z" fill="#4A555F" /><path d="M806.756823 715.645169c-7.198945 0-13.99795-1.199824-20.796954-3.999414l-109.583948-43.193673c-15.997657-6.399063-28.39584-19.597129-33.595078-35.994727l-24.396427-80.388225c-7.598887-24.396426-6.399063-50.79256 2.79959-74.789044 9.198653-23.596543 26.796075-43.993556 48.792853-56.39174l73.189279-41.993848c14.797832-8.39877 33.195137-9.998535 49.192794-3.599473l109.583947 43.193673c15.997657 6.399063 28.39584 19.597129 33.595079 35.994727l27.196017 89.186936-103.984768-41.593907-21.196895 19.99707c-19.197188 18.397305-29.195723 43.993556-27.595958 70.389689l1.599766 27.995899 103.984768 41.593908-80.788166 45.993262c-8.39877 5.199238-17.997364 7.598887-27.995899 7.598887zM771.561978 384.093736c-7.598887 0-15.197774 1.999707-21.596836 5.59918L676.775863 432.086706c-19.597129 11.19836-34.794903 29.195723-43.193673 49.992677-8.39877 20.796954-9.198653 44.393497-2.79959 65.990333l24.396427 80.388225c3.999414 12.798125 13.198067 22.796661 25.59625 27.595957l109.583948 43.193673c11.998242 4.799297 25.996192 3.599473 37.594493-2.79959l57.191622-32.795196-86.387346-34.794903-2.399648-36.394669c-1.999707-30.395548 9.598594-59.991212 31.595372-80.788165l27.196016-25.996192 86.387346 34.794903-19.197188-62.790802c-3.999414-12.798125-13.198067-22.796661-25.596251-27.595958l-109.583948-43.193673c-4.799297-1.599766-9.998535-2.79959-15.597715-2.79959z" fill="#4A555F" /><path d="M806.756823 684.84968c-3.199531 0-6.399063-0.799883-9.598594-1.599765L687.974223 640.056242c-7.198945-2.79959-12.798125-8.798711-15.197774-16.397598l-24.396427-80.388225c-5.59918-17.597422-4.799297-37.194552 1.999708-54.392032 6.799004-17.197481 19.597129-31.995313 35.594785-41.193966l73.189279-41.993848c3.999414-2.399648 8.39877-3.599473 12.798126-3.599473 3.199531 0 6.399063 0.799883 9.598594 1.599766l109.583947 43.193672c7.198945 2.79959 12.798125 8.798711 15.197774 16.397598l8.39877 27.595958-62.390861-25.196309-35.594786 33.99502c-25.996192 24.796368-39.194259 59.191329-37.194551 94.786115l3.199531 47.593029 62.790802 25.196309-25.196309 14.397891c-4.799297 1.999707-9.198653 3.199531-13.598008 3.199531z" fill="#71CDE1" /><path d="M269.235561 344.899478c-7.198945 0-13.99795-1.199824-20.796953-3.999415L139.254601 297.706391c-15.997657-6.399063-28.39584-19.597129-33.595078-35.994728l-27.196017-89.186935 103.984768 41.593907 21.196895-19.997071c19.197188-18.397305 29.195723-43.993556 27.595958-70.389689l-1.599766-27.995899-103.984768-41.593907L206.044818 7.348923C220.84265-1.049846 239.239955-2.24967 254.83767 3.749451l109.583948 43.193673c15.997657 6.399063 28.39584 19.597129 33.595079 35.994727l24.396426 80.388224c7.598887 24.396426 6.399063 50.79256-2.79959 74.789045-9.198653 23.596543-26.796075 43.993556-48.792852 56.391739L297.631402 337.300591c-8.798711 4.799297-18.397305 7.598887-28.395841 7.598887zM98.860518 194.921447l19.197188 62.790802c3.999414 12.798125 13.198067 22.796661 25.596251 27.595958l109.583948 43.193673c11.998242 4.799297 26.396133 3.599473 37.594493-2.79959L364.021677 283.708441c19.597129-11.19836 34.794903-29.195723 43.193672-49.992677 8.39877-20.796954 9.198653-44.393497 2.79959-65.990333l-24.396426-80.388225c-3.999414-12.798125-13.198067-22.796661-25.596251-27.595957L250.038373 16.147635c-11.998242-4.799297-25.996192-3.599473-37.594493 2.79959l-57.191622 32.795196 86.387346 34.794903 2.399648 36.394668c1.999707 30.395548-9.598594 59.991212-31.595372 80.788166l-27.196016 25.996192-86.387346-34.794903z" fill="#4A555F" /><path d="M269.235561 314.103989c-3.199531 0-6.399063-0.799883-9.598594-1.599766L150.452961 268.910609c-7.198945-2.79959-12.798125-8.798711-15.197774-16.397598l-8.398769-27.595958 62.39086 25.196309 35.594786-33.99502c25.996192-24.796368 39.194259-59.191329 37.194552-94.786115l-3.199532-47.593029L196.046282 48.942831l25.196309-14.397891c3.999414-2.399648 8.39877-3.199531 12.798126-3.199532 3.199531 0 6.399063 0.799883 9.598594 1.599766L353.223258 76.138847c7.198945 2.79959 12.798125 8.798711 15.197774 16.397598l24.396426 80.388224c5.59918 17.597422 4.799297 37.194552-1.999707 54.392033-6.799004 17.197481-19.597129 31.995313-35.594786 41.193965L282.033686 310.504516c-3.999414 2.399648-8.39877 3.599473-12.798125 3.599473z" fill="#71CDE1" /><path d="M628.382952 548.069716l-13.598008-19.99707c-25.196309-37.594493-56.791681-69.589806-94.386174-95.186057l-78.788459-53.992091c-34.794903-23.996485-73.189279-41.193966-113.983303-51.192501l-27.995899-6.799004 63.990626-36.79461c19.597129-11.19836 34.794903-29.195723 43.193673-49.992677 3.999414-10.398477 6.399063-21.596836 6.799004-32.795196v-5.999122l-0.399941-21.196895 12.398183 17.597423c23.996485 33.99502 53.59215 63.190744 87.987112 86.787287l80.388224 55.591856c35.194845 24.396426 73.58922 41.593907 114.783186 51.992384l22.396719 5.59918-3.599472 7.198946s-0.799883 1.599766-1.999707 4.399355l-0.799883 1.999707-47.99297 27.595958c-19.597129 11.19836-34.794903 29.195723-43.193673 49.992677-3.999414 10.398477-6.399063 21.596836-6.799004 32.795196v9.198652l1.599766 23.196602zM334.825953 315.703754c40.794024 10.798418 79.588342 28.39584 114.383245 52.392326l78.788459 53.992091c33.195137 22.796661 62.390861 50.79256 86.387345 82.787873 1.199824-9.598594 3.599473-18.797246 7.198946-27.595958 9.198653-23.596543 26.796075-43.993556 48.792852-56.791681l37.994435-21.996778-2.399649-0.799883c-42.793731-10.798418-82.787873-28.795782-119.182541-53.992091L506.40082 288.107797c-30.795489-21.196895-57.591564-46.393204-80.388224-75.588928-1.199824 8.798711-3.599473 17.197481-6.799004 25.596251-9.198653 23.596543-26.796075 43.993556-48.792853 56.791681l-35.594786 20.796953z" fill="#4A555F" /><path d="M606.386174 467.281551c-20.397012-22.396719-43.193673-42.793731-68.389982-59.991213l-78.788459-53.992091c-25.196309-17.197481-52.392325-31.595372-80.788166-42.39379l1.199825-0.799882c24.396426-13.99795 43.593614-35.594786 54.791974-61.191037 18.797246 19.997071 39.5942 37.994434 62.39086 53.992091l80.388225 55.591857c27.196016 18.797246 56.391739 33.99502 87.187228 45.19338l-2.79959 1.599765c-24.396426 14.397891-43.993556 35.994727-55.191915 61.99092z" fill="#71CDE1" /><path d="M437.714882 292.175201l162.928133 112.467525-7.494902 10.862409-162.932133-112.467525z" fill="#4A555F" /><path d="M602.38676 259.312015l-10.398477-7.998828 7.998828-10.398477 10.398477 7.998828-7.998828 10.398477z m15.997656-20.796954l-10.398476-7.998828 7.998828-10.398477 10.398477 7.998828-7.998829 10.398477z m15.997657-20.796953l-10.398477-7.998829 7.998828-10.398476 10.398477 7.998828-7.998828 10.398477z m16.397598-20.397012l-10.398477-7.998829 7.998828-10.398477 10.398477 7.998829-7.998828 10.398477z m15.997657-20.796954l-10.398477-7.998828 7.998828-10.398477 10.398477 7.998828-7.998828 10.398477z" fill="#4A555F" /><path d="M520.358776 142.441135l13.118078 1.407793-7.046968 65.614389-13.122078-1.407794z" fill="#4A555F" /><path d="M719.649583 280.228951l4.479343 12.410182-62.058909 22.432714-4.487343-12.414182z" fill="#4A555F" /><path d="M389.217986 560.067959l-10.398477-7.998829 7.998828-10.398476 10.398477 7.998828-7.998828 10.398477z m15.597715-20.796954l-10.398477-7.998828 7.998828-10.398477 10.398477 7.998828-7.998828 10.398477z m15.997656-21.196895l-10.398476-7.998828 7.998828-10.398477 10.398477 7.998828-7.998829 10.398477z m15.597716-21.196895l-10.398477-7.998828 7.998828-10.398477 10.398477 7.998828-7.998828 10.398477z m15.597715-20.796953l-10.398477-7.998829 7.998828-10.398476 10.398477 7.998828-7.998828 10.398477z" fill="#4A555F" /><path d="M384.258712 395.712034l5.311222 12.082231-60.41515 26.556109-5.307223-12.08223z" fill="#4A555F" /><path d="M518.511046 505.04002l13.186069 0.523923-2.619617 65.938341-13.190067-0.523923z" fill="#4A555F" /></svg>