<svg class="svg-icon" style="width: 1em;height: 1em;vertical-align: middle;fill: currentColor;overflow: hidden;" viewBox="0 0 1024 1024" version="1.1" xmlns="http://www.w3.org/2000/svg"><path d="M533.333333 21.333333H64a42.666667 42.666667 0 0 0-42.666667 42.666667v426.666667a42.666667 42.666667 0 0 0 42.666667 42.666666h64l85.333333 85.333334v-85.333334h320a42.666667 42.666667 0 0 0 42.666667-42.666666V64a42.666667 42.666667 0 0 0-42.666667-42.666667z" fill="#71D4C9" /><path d="M149.333333 256a149.333333 85.333333 0 1 0 298.666667 0 149.333333 85.333333 0 1 0-298.666667 0Z" fill="#F1F2F2" /><path d="M597.333333 938.666667v64H341.333333v-64h256zM981.333333 938.666667v64H725.333333v-64h256zM960 320a42.794667 42.794667 0 0 1 42.666667 42.666667 42.986667 42.986667 0 0 1-42.666667 42.666666H746.666667a42.794667 42.794667 0 0 1-42.666667-42.666666 42.986667 42.986667 0 0 1 42.666667-42.666667zM576 320a42.794667 42.794667 0 0 1 42.666667 42.666667 42.986667 42.986667 0 0 1-42.666667 42.666666H362.666667a42.794667 42.794667 0 0 1-42.666667-42.666666 42.986667 42.986667 0 0 1 42.666667-42.666667z" fill="#A4B0C0" /><path d="M960 405.333333l-21.333333 533.333334h-170.666667l-3.413333-85.333334-3.413334-85.333333-7.68-192-3.413333-85.333333-3.413333-85.333334h213.333333zM380.586667 853.333333l-12.8-321.92-1.706667-40.746666-3.413333-85.333334h213.333333l-6.826667 170.666667-7.68 192-3.413333 85.333333-3.413333 85.333334h-170.666667l-3.413333-85.333334z" fill="#D0D7DF" /><path d="M761.173333 768l3.413334 85.333333h-206.506667l3.413333-85.333333h199.68zM753.493333 576l7.68 192h-199.68l7.68-192h184.32z" fill="#F1F2F2" /><path d="M576 426.666667v-42.666667a20.416 20.416 0 0 0 14.805333-6.144A20.864 20.864 0 0 0 597.333333 362.666667a21.333333 21.333333 0 0 0-21.333333-21.333334H362.666667a20.416 20.416 0 0 0-14.805334 6.144A20.864 20.864 0 0 0 341.333333 362.666667a21.333333 21.333333 0 0 0 21.333334 21.333333v42.666667a64 64 0 0 1-64-64 64.362667 64.362667 0 0 1 64-64h213.333333a64 64 0 0 1 64 64 64.362667 64.362667 0 0 1-64 64zM960 426.666667v-42.666667a20.416 20.416 0 0 0 14.805333-6.144A20.864 20.864 0 0 0 981.333333 362.666667a21.333333 21.333333 0 0 0-21.333333-21.333334H746.666667a20.416 20.416 0 0 0-14.805334 6.144A20.864 20.864 0 0 0 725.333333 362.666667a21.333333 21.333333 0 0 0 21.333334 21.333333v42.666667a64 64 0 0 1-64-64 64.362667 64.362667 0 0 1 64-64h213.333333a64 64 0 0 1 64 64 64.362667 64.362667 0 0 1-64 64z" fill="#2A3244" /><path d="M576 939.52l-42.666667-1.706667 20.458667-511.146666h-168.917333L405.333333 937.813333l-42.666666 1.706667-21.333334-533.333333A21.333333 21.333333 0 0 1 362.666667 384h213.333333a21.333333 21.333333 0 0 1 21.333333 22.186667zM746.666667 939.52l-21.333334-533.333333A21.333333 21.333333 0 0 1 746.666667 384h213.333333a21.333333 21.333333 0 0 1 21.333333 22.186667l-21.333333 533.333333-42.666667-1.706667 20.458667-511.146666h-168.917333L789.333333 937.813333z" fill="#2A3244" /><path d="M554.666667 832h192v42.666667h-192zM554.666667 554.666667h213.333333v42.666666H554.666667zM597.333333 1024H341.333333a21.333333 21.333333 0 0 1-21.333333-21.333333v-64a21.333333 21.333333 0 0 1 21.333333-21.333334h256a21.333333 21.333333 0 0 1 21.333334 21.333334v64a21.333333 21.333333 0 0 1-21.333334 21.333333z m-234.666666-42.666667h213.333333v-21.333333H362.666667zM981.333333 1024H725.333333a21.333333 21.333333 0 0 1-21.333333-21.333333v-64a21.333333 21.333333 0 0 1 21.333333-21.333334h256a21.333333 21.333333 0 0 1 21.333334 21.333334v64a21.333333 21.333333 0 0 1-21.333334 21.333333z m-234.666666-42.666667h213.333333v-21.333333H746.666667zM362.666667 469.333333h149.333333v42.666667h-149.333333zM746.666667 469.333333h149.333333v42.666667h-149.333333zM362.666667 832h149.333333v42.666667h-149.333333zM746.666667 832h149.333333v42.666667h-149.333333z" fill="#2A3244" /><path d="M640 512h42.666667v64h-42.666667zM554.666667 746.666667h213.333333v42.666666H554.666667zM213.333333 640a21.333333 21.333333 0 0 1-15.082666-6.250667L119.168 554.666667H64a64 64 0 0 1-64-64V64a64 64 0 0 1 64-64h469.333333a64 64 0 0 1 64 64v192h-42.666666V64a21.333333 21.333333 0 0 0-21.333334-21.333333H64a21.333333 21.333333 0 0 0-21.333333 21.333333v426.666667a21.333333 21.333333 0 0 0 21.333333 21.333333h64a21.333333 21.333333 0 0 1 15.082667 6.250667L192 567.168V533.333333a21.333333 21.333333 0 0 1 21.333333-21.333333h106.666667v42.666667h-85.333333v64a21.333333 21.333333 0 0 1-13.162667 19.712A21.056 21.056 0 0 1 213.333333 640z" fill="#2A3244" /><path d="M320 362.666667h-21.333333c-95.701333 0-170.666667-46.933333-170.666667-106.666667s74.965333-106.666667 170.666667-106.666667 170.666667 46.933333 170.666666 106.666667h-42.666666c0-30.272-52.565333-64-128-64s-128 33.728-128 64 52.565333 64 128 64h21.333333z" fill="#2A3244" /><path d="M298.666667 298.666667a42.666667 42.666667 0 1 1 42.666666-42.666667 42.666667 42.666667 0 0 1-42.666666 42.666667z m0-42.666667h21.333333z" fill="#2A3244" /></svg>