<svg class="svg-icon" style="width: 1em; height: 1em;vertical-align: middle;fill: currentColor;overflow: hidden;" viewBox="0 0 1024 1024" version="1.1" xmlns="http://www.w3.org/2000/svg"><path d="M208 272v480h608V272H208z m0-64h608c35.3 0 64 28.7 64 64v480c0 35.3-28.7 64-64 64H208c-35.3 0-64-28.7-64-64V272c0-35.3 28.7-64 64-64z m-64 160h720v32H144v-32z m112-64h32c8.8 0 16 7.2 16 16s-7.2 16-16 16h-32c-8.8 0-16-7.2-16-16s7.2-16 16-16z m96 0h32c8.8 0 16 7.2 16 16s-7.2 16-16 16h-32c-8.8 0-16-7.2-16-16s7.2-16 16-16z" fill="#333333" /><path d="M507.1 468.1c32.3 0 57.2 10.8 74.1 33 15.4 20 23.4 47.6 23.8 82.9H454.5c1.5 19.2 6.5 34.2 15.7 44.5 9.2 10 21.9 15.4 38 15.4 14.2 0 25.7-3.5 34.6-10 6.9-5.4 12.7-14.2 18-25.7h40.7c-4.6 18.4-13.4 34.2-27.3 46.5-17.3 15-39.2 22.7-65.7 22.7-29.2 0-52.6-9.2-69.5-27.3-18.4-19.2-27.6-44.9-27.6-77.6 0-29.6 8.4-54.1 26.1-74.1 17-20.3 40.5-30.3 69.6-30.3z m1.2 33.4c-15.4 0-27.3 4.2-36.5 13.4-8.4 8.8-14.2 21.5-16.5 38.4h107.1c-3.8-34.5-21.9-51.8-54.1-51.8z" fill="#0076FF" /></svg>